<mxfile host="app.diagrams.net" modified="2022-05-20T21:23:14.172Z" agent="5.0 (Windows NT 10.0; Win64; x64) AppleWebKit/537.36 (KHTML, like Gecko) Chrome/101.0.4951.54 Safari/537.36" etag="Gs9C2Q69QRaMNWFcJ28N" version="18.0.3" type="github">
  <diagram id="3WVFSegH6ydpg6aKXp3P" name="Page-1">
    <mxGraphModel dx="1673" dy="821" grid="1" gridSize="10" guides="1" tooltips="1" connect="1" arrows="1" fold="1" page="1" pageScale="1" pageWidth="827" pageHeight="1169" math="0" shadow="0">
      <root>
        <mxCell id="0" />
        <mxCell id="1" parent="0" />
        <mxCell id="ZvNLoXMq3XS8w7rEFli2-1" style="edgeStyle=orthogonalEdgeStyle;rounded=0;orthogonalLoop=1;jettySize=auto;html=1;exitX=0.5;exitY=1;exitDx=0;exitDy=0;entryX=0.5;entryY=0;entryDx=0;entryDy=0;fontSize=29;" parent="1" source="ZvNLoXMq3XS8w7rEFli2-2" target="ZvNLoXMq3XS8w7rEFli2-4" edge="1">
          <mxGeometry relative="1" as="geometry" />
        </mxCell>
        <mxCell id="ZvNLoXMq3XS8w7rEFli2-2" value="&lt;p style=&quot;line-height: normal; margin: 0pt 0in; text-indent: 0in; direction: ltr; unicode-bidi: embed; vertical-align: baseline; word-break: normal;&quot;&gt;&lt;span style=&quot;font-size: 22pt; font-family: Arial; font-variant-numeric: normal; font-variant-east-asian: normal; color: rgb(23, 55, 94); font-weight: bold;&quot;&gt;dc=org&lt;/span&gt;&lt;/p&gt;" style="rounded=1;whiteSpace=wrap;html=1;" parent="1" vertex="1">
          <mxGeometry x="320" y="40" width="120" height="40" as="geometry" />
        </mxCell>
        <mxCell id="ZvNLoXMq3XS8w7rEFli2-3" style="edgeStyle=orthogonalEdgeStyle;rounded=0;orthogonalLoop=1;jettySize=auto;html=1;exitX=0.5;exitY=1;exitDx=0;exitDy=0;entryX=0.5;entryY=0;entryDx=0;entryDy=0;fontSize=29;" parent="1" source="ZvNLoXMq3XS8w7rEFli2-4" target="ZvNLoXMq3XS8w7rEFli2-7" edge="1">
          <mxGeometry relative="1" as="geometry" />
        </mxCell>
        <mxCell id="ZvNLoXMq3XS8w7rEFli2-4" value="&lt;p style=&quot;line-height: normal; margin: 0pt 0in; text-indent: 0in; direction: ltr; unicode-bidi: embed; vertical-align: baseline; word-break: normal;&quot;&gt;&lt;span style=&quot;font-size: 22pt; font-family: Arial; font-variant-numeric: normal; font-variant-east-asian: normal; color: rgb(23, 55, 94); font-weight: bold;&quot;&gt;d&lt;/span&gt;&lt;span style=&quot;font-size: 22pt; font-family: Arial; font-variant-numeric: normal; font-variant-east-asian: normal; color: rgb(23, 55, 94); font-weight: bold; vertical-align: baseline;&quot;&gt;c=imslab&lt;/span&gt;&lt;/p&gt;" style="rounded=1;whiteSpace=wrap;html=1;" parent="1" vertex="1">
          <mxGeometry x="300" y="100" width="160" height="40" as="geometry" />
        </mxCell>
        <mxCell id="ZvNLoXMq3XS8w7rEFli2-5" style="edgeStyle=orthogonalEdgeStyle;rounded=0;orthogonalLoop=1;jettySize=auto;html=1;exitX=0.25;exitY=1;exitDx=0;exitDy=0;entryX=0.5;entryY=0;entryDx=0;entryDy=0;fontSize=29;" parent="1" source="ZvNLoXMq3XS8w7rEFli2-7" target="ZvNLoXMq3XS8w7rEFli2-10" edge="1">
          <mxGeometry relative="1" as="geometry" />
        </mxCell>
        <mxCell id="ZvNLoXMq3XS8w7rEFli2-6" style="edgeStyle=orthogonalEdgeStyle;rounded=0;orthogonalLoop=1;jettySize=auto;html=1;exitX=0.75;exitY=1;exitDx=0;exitDy=0;entryX=0.5;entryY=0;entryDx=0;entryDy=0;fontSize=29;" parent="1" source="ZvNLoXMq3XS8w7rEFli2-7" target="ZvNLoXMq3XS8w7rEFli2-13" edge="1">
          <mxGeometry relative="1" as="geometry" />
        </mxCell>
        <mxCell id="ZvNLoXMq3XS8w7rEFli2-7" value="&lt;p style=&quot;line-height: normal; margin: 0pt 0in; text-indent: 0in; direction: ltr; unicode-bidi: embed; vertical-align: baseline; word-break: normal;&quot;&gt;&lt;span style=&quot;font-size: 22pt; font-family: Arial; font-variant-numeric: normal; font-variant-east-asian: normal; color: rgb(23, 55, 94); font-weight: bold;&quot;&gt;dc=&lt;/span&gt;&lt;span style=&quot;font-size: 22pt; font-family: Arial; font-variant-numeric: normal; font-variant-east-asian: normal; color: rgb(23, 55, 94); font-weight: bold;&quot;&gt;nasa&lt;/span&gt;&lt;/p&gt;" style="rounded=1;whiteSpace=wrap;html=1;" parent="1" vertex="1">
          <mxGeometry x="310" y="160" width="140" height="40" as="geometry" />
        </mxCell>
        <mxCell id="ZvNLoXMq3XS8w7rEFli2-10" value="&lt;p style=&quot;line-height: normal; margin: 0pt 0in; text-indent: 0in; direction: ltr; unicode-bidi: embed; vertical-align: baseline; word-break: normal;&quot;&gt;&lt;span style=&quot;font-size: 22pt; font-family: Arial; font-variant-numeric: normal; font-variant-east-asian: normal; color: rgb(23, 55, 94); font-weight: bold;&quot;&gt;o&lt;/span&gt;&lt;span style=&quot;font-size: 22pt; font-family: Arial; font-variant-numeric: normal; font-variant-east-asian: normal; color: rgb(23, 55, 94); font-weight: bold; vertical-align: baseline;&quot;&gt;u&lt;/span&gt;&lt;span style=&quot;font-size: 22pt; font-family: Arial; font-variant-numeric: normal; font-variant-east-asian: normal; color: rgb(23, 55, 94); font-weight: bold; vertical-align: baseline;&quot;&gt;=&lt;/span&gt;&lt;span style=&quot;font-size: 22pt; font-family: Arial; font-variant-numeric: normal; font-variant-east-asian: normal; color: rgb(23, 55, 94); font-weight: bold;&quot;&gt;Group&lt;/span&gt;&lt;/p&gt;" style="rounded=1;whiteSpace=wrap;html=1;" parent="1" vertex="1">
          <mxGeometry x="210" y="240" width="160" height="40" as="geometry" />
        </mxCell>
        <mxCell id="ZvNLoXMq3XS8w7rEFli2-11" style="edgeStyle=orthogonalEdgeStyle;rounded=0;orthogonalLoop=1;jettySize=auto;html=1;exitX=0.25;exitY=1;exitDx=0;exitDy=0;fontSize=29;" parent="1" source="ZvNLoXMq3XS8w7rEFli2-13" target="ZvNLoXMq3XS8w7rEFli2-17" edge="1">
          <mxGeometry relative="1" as="geometry" />
        </mxCell>
        <mxCell id="ZvNLoXMq3XS8w7rEFli2-13" value="&lt;p style=&quot;line-height: normal; margin: 0pt 0in; text-indent: 0in; direction: ltr; unicode-bidi: embed; vertical-align: baseline; word-break: normal;&quot;&gt;&lt;span style=&quot;font-size: 22pt; font-family: Arial; font-variant-numeric: normal; font-variant-east-asian: normal; color: rgb(23, 55, 94); font-weight: bold;&quot;&gt;o&lt;/span&gt;&lt;span style=&quot;font-size: 22pt; font-family: Arial; font-variant-numeric: normal; font-variant-east-asian: normal; color: rgb(23, 55, 94); font-weight: bold; vertical-align: baseline;&quot;&gt;u&lt;/span&gt;&lt;span style=&quot;font-size: 22pt; font-family: Arial; font-variant-numeric: normal; font-variant-east-asian: normal; color: rgb(23, 55, 94); font-weight: bold; vertical-align: baseline;&quot;&gt;=&lt;/span&gt;&lt;span style=&quot;font-size: 22pt; font-family: Arial; font-variant-numeric: normal; font-variant-east-asian: normal; color: rgb(23, 55, 94); font-weight: bold;&quot;&gt;People&lt;/span&gt;&lt;/p&gt;" style="rounded=1;whiteSpace=wrap;html=1;" parent="1" vertex="1">
          <mxGeometry x="390" y="240" width="160" height="40" as="geometry" />
        </mxCell>
        <mxCell id="ZvNLoXMq3XS8w7rEFli2-17" value="&lt;p style=&quot;line-height: normal; margin: 0pt 0in; text-indent: 0in; direction: ltr; unicode-bidi: embed; vertical-align: baseline; word-break: normal;&quot;&gt;&lt;span style=&quot;font-size: 22pt; font-family: Arial; font-variant-numeric: normal; font-variant-east-asian: normal; color: rgb(23, 55, 94); font-weight: bold;&quot;&gt;cn&lt;/span&gt;&lt;span style=&quot;font-size: 22pt; font-family: Arial; font-variant-numeric: normal; font-variant-east-asian: normal; color: rgb(23, 55, 94); font-weight: bold; vertical-align: baseline;&quot;&gt;=&lt;/span&gt;&lt;span style=&quot;font-size: 22pt; font-family: Arial; font-variant-numeric: normal; font-variant-east-asian: normal; color: rgb(23, 55, 94); font-weight: bold; vertical-align: baseline;&quot;&gt;vinc&lt;/span&gt;&lt;/p&gt;" style="rounded=1;whiteSpace=wrap;html=1;" parent="1" vertex="1">
          <mxGeometry x="365" y="320" width="130" height="40" as="geometry" />
        </mxCell>
        <mxCell id="ZvNLoXMq3XS8w7rEFli2-23" value="&lt;p style=&quot;line-height: normal; margin: 0pt 0in; text-indent: 0in; direction: ltr; unicode-bidi: embed; vertical-align: baseline; word-break: normal;&quot;&gt;&lt;span style=&quot;font-size: 20pt; font-family: Arial; font-variant-numeric: normal; font-variant-east-asian: normal;&quot;&gt;DN&lt;/span&gt;&lt;span style=&quot;font-size: 20pt; font-family: Arial; font-variant-numeric: normal; font-variant-east-asian: normal;&quot;&gt; &lt;/span&gt;&lt;span style=&quot;font-size: 20pt; font-family: Arial; font-variant-numeric: normal; font-variant-east-asian: normal;&quot;&gt;(distinguished name):&lt;/span&gt;&lt;/p&gt;&lt;p style=&quot;line-height: normal; margin: 0pt 0in; text-indent: 0in; direction: ltr; unicode-bidi: embed; vertical-align: baseline; word-break: normal;&quot;&gt;&lt;span style=&quot;font-size: 20pt; font-family: Arial; font-variant-numeric: normal; font-variant-east-asian: normal;&quot;&gt;&lt;/span&gt;&lt;/p&gt;&lt;p style=&quot;line-height: normal; margin: 0pt 0in; text-indent: 0in; direction: ltr; unicode-bidi: embed; vertical-align: baseline; word-break: normal;&quot;&gt;&lt;span style=&quot;font-size: 20pt; font-family: Arial; font-variant-numeric: normal; font-variant-east-asian: normal; vertical-align: baseline;&quot;&gt;cn&lt;/span&gt;&lt;span style=&quot;font-size: 20pt; font-family: Arial; font-variant-numeric: normal; font-variant-east-asian: normal; vertical-align: baseline;&quot;&gt;=&lt;/span&gt;&lt;span style=&quot;font-size: 20pt; font-family: Arial; font-variant-numeric: normal; font-variant-east-asian: normal;&quot;&gt;vinc&lt;/span&gt;&lt;span style=&quot;font-size: 20pt; font-family: Arial; font-variant-numeric: normal; font-variant-east-asian: normal; vertical-align: baseline;&quot;&gt;,ou&lt;/span&gt;&lt;span style=&quot;font-size: 20pt; font-family: Arial; font-variant-numeric: normal; font-variant-east-asian: normal; vertical-align: baseline;&quot;&gt;=&lt;/span&gt;&lt;span style=&quot;font-size: 20pt; font-family: Arial; font-variant-numeric: normal; font-variant-east-asian: normal;&quot;&gt;P&lt;/span&gt;&lt;span style=&quot;font-size: 20pt; font-family: Arial; font-variant-numeric: normal; font-variant-east-asian: normal; vertical-align: baseline;&quot;&gt;eople,dc&lt;/span&gt;&lt;span style=&quot;font-size: 20pt; font-family: Arial; font-variant-numeric: normal; font-variant-east-asian: normal; vertical-align: baseline;&quot;&gt;=&lt;/span&gt;&lt;span style=&quot;font-size: 20pt; font-family: Arial; font-variant-numeric: normal; font-variant-east-asian: normal; vertical-align: baseline;&quot;&gt;nasa&lt;/span&gt;&lt;span style=&quot;font-size: 20pt; font-family: Arial; font-variant-numeric: normal; font-variant-east-asian: normal;&quot;&gt;,dc&lt;/span&gt;&lt;span style=&quot;font-size: 20pt; font-family: Arial; font-variant-numeric: normal; font-variant-east-asian: normal;&quot;&gt;=imslab&lt;/span&gt;&lt;span style=&quot;font-size: 20pt; font-family: Arial; font-variant-numeric: normal; font-variant-east-asian: normal;&quot;&gt;,dc&lt;/span&gt;&lt;span style=&quot;font-size: 20pt; font-family: Arial; font-variant-numeric: normal; font-variant-east-asian: normal;&quot;&gt;=org&lt;/span&gt;&lt;/p&gt;" style="rounded=0;whiteSpace=wrap;html=1;align=left;fillColor=#dae8fc;strokeColor=#6c8ebf;" parent="1" vertex="1">
          <mxGeometry x="100" y="400" width="570" height="90" as="geometry" />
        </mxCell>
        <mxCell id="ZvNLoXMq3XS8w7rEFli2-24" value="" style="shape=flexArrow;endArrow=classic;html=1;rounded=0;entryX=0.162;entryY=1.055;entryDx=0;entryDy=0;entryPerimeter=0;fillColor=#dae8fc;strokeColor=#6c8ebf;" parent="1" edge="1">
          <mxGeometry width="50" height="50" relative="1" as="geometry">
            <mxPoint x="370" y="392" as="sourcePoint" />
            <mxPoint x="386.05999999999995" y="364.20000000000005" as="targetPoint" />
          </mxGeometry>
        </mxCell>
        <mxCell id="ZvNLoXMq3XS8w7rEFli2-26" value="" style="rounded=0;whiteSpace=wrap;html=1;dashed=1;strokeColor=#FF8000;fillColor=none;strokeWidth=4;dashPattern=1 1;" parent="1" vertex="1">
          <mxGeometry x="106" y="447" width="95" height="30" as="geometry" />
        </mxCell>
        <mxCell id="ZvNLoXMq3XS8w7rEFli2-27" value="&lt;p style=&quot;language:zh-TW;line-height:normal;margin-top:0pt;margin-bottom:0pt;&#xa;margin-right:0in;text-align:left;direction:ltr;unicode-bidi:embed&quot;&gt;&lt;span style=&quot;font-size:22.0pt;font-family:Arial;mso-ascii-font-family:Arial;&#xa;mso-fareast-font-family:Arial;mso-bidi-font-family:Arial;mso-ascii-theme-font:&#xa;major-latin;font-variant:normal;color:#E46C0A;mso-color-index:9;text-transform:&#xa;none;language:en-US;font-weight:bold;font-style:normal;mso-style-textfill-type:&#xa;solid;mso-style-textfill-fill-themecolor:accent6;mso-style-textfill-fill-color:&#xa;#E46C0A;mso-style-textfill-fill-alpha:100.0%;mso-style-textfill-fill-colortransforms:&#xa;lumm=75000&quot;&gt;RDN: Relative Distinguished Name&lt;/span&gt;&lt;/p&gt;" style="text;whiteSpace=wrap;html=1;" parent="1" vertex="1">
          <mxGeometry x="150" y="520" width="510" height="50" as="geometry" />
        </mxCell>
        <mxCell id="ZvNLoXMq3XS8w7rEFli2-28" value="" style="endArrow=classic;html=1;rounded=0;entryX=0.5;entryY=1;entryDx=0;entryDy=0;" parent="1" target="ZvNLoXMq3XS8w7rEFli2-26" edge="1">
          <mxGeometry width="50" height="50" relative="1" as="geometry">
            <mxPoint x="180" y="527" as="sourcePoint" />
            <mxPoint x="230" y="477" as="targetPoint" />
          </mxGeometry>
        </mxCell>
        <mxCell id="ZvNLoXMq3XS8w7rEFli2-32" value="&lt;p&gt;&lt;span style=&quot;font-size: 24pt; font-family: Arial; font-variant-numeric: normal; font-variant-east-asian: normal;&quot;&gt;dn&lt;/span&gt;&lt;span style=&quot;font-size: 24pt; font-family: Arial; font-variant-numeric: normal; font-variant-east-asian: normal;&quot;&gt;: &lt;/span&gt;&lt;span style=&quot;font-size: 24pt; font-family: Arial; font-variant-numeric: normal; font-variant-east-asian: normal;&quot;&gt;ou&lt;/span&gt;&lt;span style=&quot;font-size: 24pt; font-family: Arial; font-variant-numeric: normal; font-variant-east-asian: normal;&quot;&gt;=&lt;/span&gt;&lt;span style=&quot;font-size: 24pt; font-family: Arial; font-variant-numeric: normal; font-variant-east-asian: normal;&quot;&gt;People,dc&lt;/span&gt;&lt;span style=&quot;font-size: 24pt; font-family: Arial; font-variant-numeric: normal; font-variant-east-asian: normal;&quot;&gt;=nasa&lt;/span&gt;&lt;span style=&quot;font-size: 24pt; font-family: Arial; font-variant-numeric: normal; font-variant-east-asian: normal;&quot;&gt;,dc&lt;/span&gt;&lt;span style=&quot;font-size: 24pt; font-family: Arial; font-variant-numeric: normal; font-variant-east-asian: normal;&quot;&gt;=imslab&lt;/span&gt;&lt;span style=&quot;font-size: 24pt; font-family: Arial; font-variant-numeric: normal; font-variant-east-asian: normal;&quot;&gt;,dc&lt;/span&gt;&lt;span style=&quot;font-size: 24pt; font-family: Arial; font-variant-numeric: normal; font-variant-east-asian: normal;&quot;&gt;=org&lt;/span&gt;&lt;/p&gt;" style="text;html=1;strokeColor=none;fillColor=none;align=center;verticalAlign=middle;whiteSpace=wrap;rounded=0;dashed=1;dashPattern=1 1;" parent="1" vertex="1">
          <mxGeometry x="520" y="45" width="630" height="30" as="geometry" />
        </mxCell>
        <mxCell id="ZvNLoXMq3XS8w7rEFli2-33" value="&lt;p style=&quot;line-height: normal; margin-top: 0pt; margin-bottom: 0pt; margin-right: 0in; direction: ltr; unicode-bidi: embed;&quot;&gt;&lt;span style=&quot;font-size: 20pt; font-family: Arial; font-variant-numeric: normal; font-variant-east-asian: normal;&quot;&gt;&amp;nbsp;ou&lt;/span&gt;&lt;span style=&quot;font-size: 20pt; font-family: Arial; font-variant-numeric: normal; font-variant-east-asian: normal;&quot;&gt;: People&lt;/span&gt;&lt;/p&gt;&lt;p style=&quot;line-height: normal; margin-top: 0pt; margin-bottom: 0pt; margin-right: 0in; direction: ltr; unicode-bidi: embed;&quot;&gt;&lt;span style=&quot;font-size: 20pt; font-family: Arial; font-variant-numeric: normal; font-variant-east-asian: normal;&quot;&gt;&lt;/span&gt;&lt;/p&gt;&lt;p style=&quot;line-height: normal; margin-top: 0pt; margin-bottom: 0pt; margin-right: 0in; direction: ltr; unicode-bidi: embed;&quot;&gt;&lt;span style=&quot;font-size: 20pt; font-family: Arial; font-variant-numeric: normal; font-variant-east-asian: normal;&quot;&gt;&amp;nbsp;objectClass&lt;/span&gt;&lt;span style=&quot;font-size: 20pt; font-family: Arial; font-variant-numeric: normal; font-variant-east-asian: normal;&quot;&gt;: top&lt;/span&gt;&lt;/p&gt;&lt;p style=&quot;line-height: normal; margin-top: 0pt; margin-bottom: 0pt; margin-right: 0in; direction: ltr; unicode-bidi: embed;&quot;&gt;&lt;span style=&quot;font-size: 20pt; font-family: Arial; font-variant-numeric: normal; font-variant-east-asian: normal;&quot;&gt;&lt;/span&gt;&lt;/p&gt;&lt;p style=&quot;line-height: normal; margin-top: 0pt; margin-bottom: 0pt; margin-right: 0in; direction: ltr; unicode-bidi: embed;&quot;&gt;&lt;span style=&quot;font-size: 20pt; font-family: Arial; font-variant-numeric: normal; font-variant-east-asian: normal;&quot;&gt;&amp;nbsp;objectClass&lt;/span&gt;&lt;span style=&quot;font-size: 20pt; font-family: Arial; font-variant-numeric: normal; font-variant-east-asian: normal;&quot;&gt;: &lt;/span&gt;&lt;span style=&quot;font-size: 20pt; font-family: Arial; font-variant-numeric: normal; font-variant-east-asian: normal;&quot;&gt;organizationalUnit&lt;/span&gt;&lt;/p&gt;&lt;p style=&quot;line-height: normal; margin-top: 0pt; margin-bottom: 0pt; margin-right: 0in; direction: ltr; unicode-bidi: embed;&quot;&gt;&lt;span style=&quot;font-size: 20pt; font-family: Arial; font-variant-numeric: normal; font-variant-east-asian: normal;&quot;&gt;&lt;/span&gt;&lt;/p&gt;&lt;p style=&quot;line-height: normal; margin-top: 0pt; margin-bottom: 0pt; margin-right: 0in; direction: ltr; unicode-bidi: embed;&quot;&gt;&lt;span style=&quot;font-size: 20pt; font-family: Arial; font-variant-numeric: normal; font-variant-east-asian: normal;&quot;&gt;&amp;nbsp;objectClass&lt;/span&gt;&lt;span style=&quot;font-size: 20pt; font-family: Arial; font-variant-numeric: normal; font-variant-east-asian: normal;&quot;&gt;: &lt;/span&gt;&lt;span style=&quot;font-size: 20pt; font-family: Arial; font-variant-numeric: normal; font-variant-east-asian: normal;&quot;&gt;domainRelatedObject&lt;/span&gt;&lt;/p&gt;&lt;p style=&quot;line-height: normal; margin-top: 0pt; margin-bottom: 0pt; margin-right: 0in; direction: ltr; unicode-bidi: embed;&quot;&gt;&lt;span style=&quot;font-size: 20pt; font-family: Arial; font-variant-numeric: normal; font-variant-east-asian: normal;&quot;&gt;&lt;/span&gt;&lt;/p&gt;&lt;p style=&quot;line-height: normal; margin-top: 0pt; margin-bottom: 0pt; margin-right: 0in; direction: ltr; unicode-bidi: embed;&quot;&gt;&lt;span style=&quot;font-size: 20pt; font-family: Arial; font-variant-numeric: normal; font-variant-east-asian: normal;&quot;&gt;&amp;nbsp;associatedDomain&lt;/span&gt;&lt;span style=&quot;font-size: 20pt; font-family: Arial; font-variant-numeric: normal; font-variant-east-asian: normal;&quot;&gt;: nasa.imslab.org&amp;nbsp;&lt;/span&gt;&lt;/p&gt;" style="rounded=0;whiteSpace=wrap;html=1;dashed=1;strokeColor=#82b366;fillColor=#d5e8d4;strokeWidth=4;dashPattern=1 1;align=left;" parent="1" vertex="1">
          <mxGeometry x="620" y="100" width="440" height="160" as="geometry" />
        </mxCell>
        <mxCell id="ZvNLoXMq3XS8w7rEFli2-36" value="" style="endArrow=none;dashed=1;html=1;dashPattern=1 3;strokeWidth=2;rounded=0;fontFamily=Helvetica;fontSize=25;exitX=0.75;exitY=0;exitDx=0;exitDy=0;" parent="1" source="ZvNLoXMq3XS8w7rEFli2-13" edge="1">
          <mxGeometry width="50" height="50" relative="1" as="geometry">
            <mxPoint x="570" y="200" as="sourcePoint" />
            <mxPoint x="620" y="150" as="targetPoint" />
            <Array as="points">
              <mxPoint x="560" y="150" />
            </Array>
          </mxGeometry>
        </mxCell>
        <mxCell id="ZvNLoXMq3XS8w7rEFli2-37" value="&lt;p style=&quot;line-height: normal; margin-top: 0pt; margin-bottom: 0pt; margin-right: 0in; direction: ltr; unicode-bidi: embed;&quot;&gt;&lt;span style=&quot;font-size: 20pt; font-family: Arial; font-variant-numeric: normal; font-variant-east-asian: normal;&quot;&gt;&amp;nbsp;&lt;/span&gt;&lt;span style=&quot;background-color: initial; font-size: 20pt; font-family: Arial; font-variant-numeric: normal; font-variant-east-asian: normal;&quot;&gt;objectClass&lt;/span&gt;&lt;span style=&quot;background-color: initial; font-size: 20pt; font-family: Arial; font-variant-numeric: normal; font-variant-east-asian: normal;&quot;&gt;: person&lt;/span&gt;&lt;/p&gt;&lt;p style=&quot;line-height: normal; margin-top: 0pt; margin-bottom: 0pt; margin-right: 0in; direction: ltr; unicode-bidi: embed;&quot;&gt;&lt;span style=&quot;font-size: 20pt; font-family: Arial; font-variant-numeric: normal; font-variant-east-asian: normal;&quot;&gt;&lt;/span&gt;&lt;/p&gt;&lt;p style=&quot;line-height: normal; margin-top: 0pt; margin-bottom: 0pt; margin-right: 0in; direction: ltr; unicode-bidi: embed;&quot;&gt;&lt;span style=&quot;font-size: 20pt; font-family: Arial; font-variant-numeric: normal; font-variant-east-asian: normal;&quot;&gt;&amp;nbsp;&lt;/span&gt;&lt;span style=&quot;background-color: initial; font-size: 20pt; font-family: Arial; font-variant-numeric: normal; font-variant-east-asian: normal;&quot;&gt;cn&lt;/span&gt;&lt;span style=&quot;background-color: initial; font-size: 20pt; font-family: Arial; font-variant-numeric: normal; font-variant-east-asian: normal;&quot;&gt;: &lt;/span&gt;&lt;span style=&quot;background-color: initial; font-size: 20pt; font-family: Arial; font-variant-numeric: normal; font-variant-east-asian: normal;&quot;&gt;vinc&lt;/span&gt;&lt;/p&gt;&lt;p style=&quot;line-height: normal; margin-top: 0pt; margin-bottom: 0pt; margin-right: 0in; direction: ltr; unicode-bidi: embed;&quot;&gt;&lt;span style=&quot;font-size: 20pt; font-family: Arial; font-variant-numeric: normal; font-variant-east-asian: normal;&quot;&gt;&lt;/span&gt;&lt;/p&gt;&lt;p style=&quot;line-height: normal; margin-top: 0pt; margin-bottom: 0pt; margin-right: 0in; direction: ltr; unicode-bidi: embed;&quot;&gt;&lt;span style=&quot;font-size: 20pt; font-family: Arial; font-variant-numeric: normal; font-variant-east-asian: normal;&quot;&gt;&amp;nbsp;&lt;/span&gt;&lt;span style=&quot;background-color: initial; font-size: 20pt; font-family: Arial; font-variant-numeric: normal; font-variant-east-asian: normal;&quot;&gt;sn&lt;/span&gt;&lt;span style=&quot;background-color: initial; font-size: 20pt; font-family: Arial; font-variant-numeric: normal; font-variant-east-asian: normal;&quot;&gt;: &lt;/span&gt;&lt;span style=&quot;background-color: initial; font-size: 20pt; font-family: Arial; font-variant-numeric: normal; font-variant-east-asian: normal;&quot;&gt;Yan&lt;/span&gt;&lt;/p&gt;&lt;p style=&quot;line-height: normal; margin-top: 0pt; margin-bottom: 0pt; margin-right: 0in; direction: ltr; unicode-bidi: embed;&quot;&gt;&lt;span style=&quot;font-size: 20pt; font-family: Arial; font-variant-numeric: normal; font-variant-east-asian: normal;&quot;&gt;&lt;/span&gt;&lt;/p&gt;&lt;p style=&quot;line-height: normal; margin-top: 0pt; margin-bottom: 0pt; margin-right: 0in; direction: ltr; unicode-bidi: embed;&quot;&gt;&lt;span style=&quot;font-size: 20pt; font-family: Arial; font-variant-numeric: normal; font-variant-east-asian: normal;&quot;&gt;&amp;nbsp;&lt;/span&gt;&lt;span style=&quot;background-color: initial; font-size: 20pt; font-family: Arial; font-variant-numeric: normal; font-variant-east-asian: normal;&quot;&gt;telephoneNumber&lt;/span&gt;&lt;span style=&quot;background-color: initial; font-size: 20pt; font-family: Arial; font-variant-numeric: normal; font-variant-east-asian: normal;&quot;&gt;: 123-4567&lt;br&gt;&lt;/span&gt;&lt;/p&gt;" style="rounded=0;whiteSpace=wrap;html=1;dashed=1;strokeColor=#82b366;fillColor=#d5e8d4;strokeWidth=4;dashPattern=1 1;align=left;" parent="1" vertex="1">
          <mxGeometry x="620" y="270" width="440" height="120" as="geometry" />
        </mxCell>
        <mxCell id="ZvNLoXMq3XS8w7rEFli2-38" value="" style="endArrow=none;dashed=1;html=1;dashPattern=1 3;strokeWidth=2;rounded=0;fontFamily=Helvetica;fontSize=25;exitX=1;exitY=0.5;exitDx=0;exitDy=0;entryX=0;entryY=0.25;entryDx=0;entryDy=0;" parent="1" source="ZvNLoXMq3XS8w7rEFli2-17" target="ZvNLoXMq3XS8w7rEFli2-37" edge="1">
          <mxGeometry width="50" height="50" relative="1" as="geometry">
            <mxPoint x="520" y="350" as="sourcePoint" />
            <mxPoint x="570" y="300" as="targetPoint" />
            <Array as="points">
              <mxPoint x="560" y="300" />
            </Array>
          </mxGeometry>
        </mxCell>
      </root>
    </mxGraphModel>
  </diagram>
</mxfile>
